   <svg width="35" height="40" viewBox="0 0 35 40" fill="none" xmlns="http://www.w3.org/2000/svg">
            <path d="M28.6276 38.3892C26.4702 40.4948 24.0899 40.1666 21.821 39.1738C19.4089 38.161 17.2037 38.097 14.6562 39.1738C11.4838 40.5509 9.80009 40.1506 7.88948 38.3892C-2.89752 27.2207 -1.30535 10.2078 10.9544 9.56728C13.9278 9.7274 16.0096 11.2205 17.761 11.3446C20.3642 10.8122 22.856 9.28707 25.6423 9.48722C28.9898 9.75943 31.4935 11.0884 33.1653 13.4783C26.2791 17.6414 27.9111 26.7684 34.236 29.3303C32.9703 32.6729 31.3462 35.9754 28.6236 38.4172L28.6276 38.3892ZM17.5222 9.44719C17.1997 4.48341 21.2001 0.400305 25.8015 0C26.4344 5.72436 20.6269 10.0076 17.5222 9.44719Z" fill="white"/>
            </svg>     