<svg width="355" height="161" viewBox="0 0 355 161" fill="none" xmlns="http://www.w3.org/2000/svg">
<circle cx="2.64269" cy="157.68" r="2.64269" transform="rotate(-90 2.64269 157.68)" fill="#70C217"/>
<circle cx="2.64269" cy="118.921" r="2.64269" transform="rotate(-90 2.64269 118.921)" fill="#70C217"/>
<circle cx="2.64269" cy="80.162" r="2.64269" transform="rotate(-90 2.64269 80.162)" fill="#70C217"/>
<circle cx="2.64269" cy="41.4027" r="2.64269" transform="rotate(-90 2.64269 41.4027)" fill="#70C217"/>
<circle cx="2.64269" cy="2.64271" r="2.64269" transform="rotate(-90 2.64269 2.64271)" fill="#70C217"/>
<circle cx="41.4025" cy="157.681" r="2.64269" transform="rotate(-90 41.4025 157.681)" fill="#70C217"/>
<circle cx="41.4025" cy="118.921" r="2.64269" transform="rotate(-90 41.4025 118.921)" fill="#70C217"/>
<circle cx="41.4025" cy="80.162" r="2.64269" transform="rotate(-90 41.4025 80.162)" fill="#70C217"/>
<circle cx="41.4025" cy="41.4027" r="2.64269" transform="rotate(-90 41.4025 41.4027)" fill="#70C217"/>
<circle cx="41.4025" cy="2.64271" r="2.64269" transform="rotate(-90 41.4025 2.64271)" fill="#70C217"/>
<circle cx="80.1622" cy="157.681" r="2.64269" transform="rotate(-90 80.1622 157.681)" fill="#70C217"/>
<circle cx="80.1622" cy="118.921" r="2.64269" transform="rotate(-90 80.1622 118.921)" fill="#70C217"/>
<circle cx="80.1622" cy="80.162" r="2.64269" transform="rotate(-90 80.1622 80.162)" fill="#70C217"/>
<circle cx="80.1622" cy="41.4027" r="2.64269" transform="rotate(-90 80.1622 41.4027)" fill="#70C217"/>
<circle cx="80.1622" cy="2.64271" r="2.64269" transform="rotate(-90 80.1622 2.64271)" fill="#70C217"/>
<circle cx="118.922" cy="157.681" r="2.64269" transform="rotate(-90 118.922 157.681)" fill="#70C217"/>
<circle cx="118.922" cy="118.921" r="2.64269" transform="rotate(-90 118.922 118.921)" fill="#70C217"/>
<circle cx="118.922" cy="80.162" r="2.64269" transform="rotate(-90 118.922 80.162)" fill="#70C217"/>
<circle cx="118.922" cy="41.4027" r="2.64269" transform="rotate(-90 118.922 41.4027)" fill="#70C217"/>
<circle cx="118.922" cy="2.64271" r="2.64269" transform="rotate(-90 118.922 2.64271)" fill="#70C217"/>
<circle cx="157.68" cy="157.681" r="2.64269" transform="rotate(-90 157.68 157.681)" fill="#70C217"/>
<circle cx="157.68" cy="118.921" r="2.64269" transform="rotate(-90 157.68 118.921)" fill="#70C217"/>
<circle cx="157.68" cy="80.162" r="2.64269" transform="rotate(-90 157.68 80.162)" fill="#70C217"/>
<circle cx="157.68" cy="41.4027" r="2.64269" transform="rotate(-90 157.68 41.4027)" fill="#70C217"/>
<circle cx="157.68" cy="2.64271" r="2.64269" transform="rotate(-90 157.68 2.64271)" fill="#70C217"/>
<circle cx="196.44" cy="157.681" r="2.64269" transform="rotate(-90 196.44 157.681)" fill="#70C217"/>
<circle cx="196.44" cy="118.921" r="2.64269" transform="rotate(-90 196.44 118.921)" fill="#70C217"/>
<circle cx="196.44" cy="80.162" r="2.64269" transform="rotate(-90 196.44 80.162)" fill="#70C217"/>
<circle cx="196.44" cy="41.4027" r="2.64269" transform="rotate(-90 196.44 41.4027)" fill="#70C217"/>
<circle cx="196.44" cy="2.64271" r="2.64269" transform="rotate(-90 196.44 2.64271)" fill="#70C217"/>
<circle cx="235.199" cy="157.681" r="2.64269" transform="rotate(-90 235.199 157.681)" fill="#70C217"/>
<circle cx="235.199" cy="118.921" r="2.64269" transform="rotate(-90 235.199 118.921)" fill="#70C217"/>
<circle cx="235.199" cy="80.162" r="2.64269" transform="rotate(-90 235.199 80.162)" fill="#70C217"/>
<circle cx="235.199" cy="41.4027" r="2.64269" transform="rotate(-90 235.199 41.4027)" fill="#70C217"/>
<circle cx="235.199" cy="2.64271" r="2.64269" transform="rotate(-90 235.199 2.64271)" fill="#70C217"/>
<circle cx="273.959" cy="157.681" r="2.64269" transform="rotate(-90 273.959 157.681)" fill="#70C217"/>
<circle cx="273.959" cy="118.921" r="2.64269" transform="rotate(-90 273.959 118.921)" fill="#70C217"/>
<circle cx="273.959" cy="80.162" r="2.64269" transform="rotate(-90 273.959 80.162)" fill="#70C217"/>
<circle cx="273.959" cy="41.4027" r="2.64269" transform="rotate(-90 273.959 41.4027)" fill="#70C217"/>
<circle cx="273.959" cy="2.64271" r="2.64269" transform="rotate(-90 273.959 2.64271)" fill="#70C217"/>
<circle cx="312.717" cy="157.681" r="2.64269" transform="rotate(-90 312.717 157.681)" fill="#70C217"/>
<circle cx="312.717" cy="118.921" r="2.64269" transform="rotate(-90 312.717 118.921)" fill="#70C217"/>
<circle cx="312.717" cy="80.162" r="2.64269" transform="rotate(-90 312.717 80.162)" fill="#70C217"/>
<circle cx="312.717" cy="41.4027" r="2.64269" transform="rotate(-90 312.717 41.4027)" fill="#70C217"/>
<circle cx="312.717" cy="2.64271" r="2.64269" transform="rotate(-90 312.717 2.64271)" fill="#70C217"/>
<circle cx="351.477" cy="157.681" r="2.64269" transform="rotate(-90 351.477 157.681)" fill="#70C217"/>
<circle cx="351.477" cy="118.921" r="2.64269" transform="rotate(-90 351.477 118.921)" fill="#70C217"/>
<circle cx="351.477" cy="80.162" r="2.64269" transform="rotate(-90 351.477 80.162)" fill="#70C217"/>
<circle cx="351.477" cy="41.4027" r="2.64269" transform="rotate(-90 351.477 41.4027)" fill="#70C217"/>
<circle cx="351.477" cy="2.64271" r="2.64269" transform="rotate(-90 351.477 2.64271)" fill="#70C217"/>
</svg>
