<svg width="1440" height="812" viewBox="0 0 1440 812" fill="none" xmlns="http://www.w3.org/2000/svg">
  <path
    d="M-2 117C-2 117 436.685 133.405 718 133.405C999.315 133.405 1438 117 1438 117V724C1438 724 999.315 707.595 718 707.595C436.685 707.595 -2 724 -2 724L-2 117Z"
    fill="#7F58BD" />
  <path fill-rule="evenodd" clip-rule="evenodd"
    d="M1674.14 77.0837C1718.82 88.2797 1748.9 128.601 1777.77 166.089C1807.28 204.409 1834.74 244.983 1841.76 294.742C1849.46 349.282 1847.81 409.034 1818.72 456.247C1789.49 503.671 1735.65 521.787 1687.44 545.133C1636.12 569.99 1583.96 608.674 1530.24 595.947C1476.05 583.106 1434.64 533.551 1411.86 479.834C1391.56 431.962 1417.87 376.704 1414.76 323.584C1411.45 266.99 1364.38 208.824 1393.15 159.763C1421.76 110.966 1490.27 122.111 1541.78 106.956C1586.44 93.8136 1629.9 65.9985 1674.14 77.0837Z"
    fill="white" fill-opacity="0.14" />
  <path fill-rule="evenodd" clip-rule="evenodd"
    d="M1675.85 78.0438C1720.53 89.2398 1750.61 129.561 1779.48 167.049C1808.99 205.369 1836.45 245.943 1843.47 295.702C1851.17 350.243 1849.53 409.994 1820.43 457.207C1791.2 504.631 1737.37 522.748 1689.16 546.093C1637.83 570.95 1585.67 609.634 1531.96 596.907C1477.76 584.066 1436.35 534.511 1413.57 480.794C1393.27 432.922 1419.58 377.664 1416.47 324.544C1413.17 267.95 1366.1 209.784 1394.86 160.723C1423.47 111.926 1491.99 123.071 1543.49 107.916C1588.16 94.7737 1631.61 66.9587 1675.85 78.0438Z"
    fill="white" fill-opacity="0.14" />
  <path fill-rule="evenodd" clip-rule="evenodd"
    d="M-284.688 74.9128C-241.217 59.6522 -191.373 85.5136 -144.293 109C-96.1676 133.007 -48.3032 160.767 -11.3405 211.273C29.1745 266.633 65.3438 333.505 71.2488 403.518C77.1801 473.842 44.6409 527.068 19.9761 582.579C-6.2858 641.684 -24.5461 716.542 -76.3448 735.694C-128.607 755.017 -193.493 725.979 -245.79 680.841C-292.395 640.615 -305.628 563.46 -341.506 506.829C-379.729 446.494 -454.633 411.459 -461.968 339.614C-469.263 268.156 -406.387 238.119 -373.892 189.599C-345.711 147.523 -327.729 90.0222 -284.688 74.9128Z"
    fill="white" fill-opacity="0.14" />
  <path fill-rule="evenodd" clip-rule="evenodd"
    d="M-282.688 74.9128C-239.217 59.6522 -189.373 85.5135 -142.293 109C-94.1676 133.007 -46.3032 160.767 -9.34051 211.273C31.1745 266.633 67.3438 333.505 73.2488 403.518C79.1801 473.842 46.6409 527.068 21.9761 582.579C-4.28578 641.684 -22.5461 716.542 -74.3448 735.694C-126.607 755.017 -191.493 725.98 -243.79 680.841C-290.395 640.615 -303.628 563.46 -339.506 506.829C-377.729 446.494 -452.633 411.459 -459.968 339.614C-467.263 268.156 -404.387 238.119 -371.892 189.599C-343.711 147.523 -325.729 90.0222 -282.688 74.9128Z"
    fill="white" fill-opacity="0.14" />
  <circle cx="1174.5" cy="396.5" r="22" stroke="#6C63FF" stroke-opacity="0.5" stroke-width="5" />
  <circle cx="1115.5" cy="441.5" r="14" stroke="#6C63FF" stroke-opacity="0.5" stroke-width="5" />
</svg>